<?xml version="1.0" standalone="no"?>
<!DOCTYPE svg PUBLIC "-//W3C//DTD SVG 20010904//EN"
 "http://www.w3.org/TR/2001/REC-SVG-20010904/DTD/svg10.dtd">
<svg version="1.0" xmlns="http://www.w3.org/2000/svg"
 width="300.000000pt" height="206.000000pt" viewBox="0 0 300.000000 206.000000"
 preserveAspectRatio="xMidYMid meet">
<metadata>
Created by potrace 1.10, written by Peter Selinger 2001-2011
</metadata>
<g transform="translate(0.000000,206.000000) scale(0.100000,-0.100000)"
fill="#000000" stroke="none">
<path d="M545 2049 c-270 -39 -464 -190 -520 -404 -9 -36 -15 -102 -15 -167
l0 -108 238 -2 237 -3 3 -389 c2 -345 4 -392 19 -408 15 -17 41 -18 378 -18
338 0 363 1 378 18 14 16 17 43 17 170 l0 152 100 0 100 0 0 -155 c0 -142 2
-157 20 -175 19 -19 33 -20 378 -20 l359 0 21 23 c21 22 22 33 22 180 l0 157
195 0 c212 0 240 -5 285 -54 22 -24 25 -36 25 -104 0 -42 -4 -87 -8 -99 -8
-23 -8 -23 96 -23 121 0 113 -7 123 115 15 183 -74 365 -210 427 -48 21 -66
23 -278 26 l-228 3 0 132 c0 104 -3 137 -16 155 l-15 22 -368 0 c-344 0 -369
-1 -384 -18 -14 -16 -17 -44 -17 -180 l0 -162 -100 0 -100 0 0 164 c0 140 -2
166 -17 177 -12 11 -84 15 -327 19 l-311 5 22 22 c12 12 39 26 60 32 25 7 265
11 701 11 l662 0 0 245 0 245 -732 -1 c-403 -1 -760 -5 -793 -10z m615 -1024
l0 -345 -272 2 -273 3 -3 343 -2 342 275 0 275 0 0 -345z m990 -5 l0 -350
-270 0 -270 0 0 350 0 350 270 0 270 0 0 -350z"/>
<path d="M1941 1154 c-52 -44 -64 -121 -30 -192 60 -122 189 -69 189 78 0 116
-84 177 -159 114z"/>
<path d="M1140 453 c-281 -28 -479 -87 -521 -157 -16 -26 -19 -51 -19 -158 l0
-128 330 0 330 0 0 123 c0 155 1 157 119 157 124 0 121 4 121 -150 l0 -130
330 0 330 0 0 139 0 139 -39 35 c-66 59 -223 105 -440 127 -94 9 -458 12 -541
3z"/>
</g>
</svg>
